<?xml version="1.0" encoding="UTF-8" standalone="no"?>
<!-- Created with Inkscape (http://www.inkscape.org/) -->

<svg
   width="512"
   height="512"
   viewBox="0 0 512 512"
   version="1.1"
   id="svg1"
   xmlns="http://www.w3.org/2000/svg"
   xmlns:svg="http://www.w3.org/2000/svg">
  <defs
     id="defs1" />
  <g
     id="layer1">
    <g
       id="layer2"
       style="display:inline"
       transform="matrix(3.7795276,0,0,3.7795276,-189.28271,-201.87864)">
      <circle
         style="display:inline;fill:#fdaecc;fill-opacity:1;stroke:#51267f;stroke-width:2.82071;stroke-dasharray:none;stroke-opacity:1"
         id="circle9"
         cx="112.48563"
         cy="121.45211"
         r="59.396973" />
      <g
         id="g25"
         style="display:inline"
         transform="matrix(0.74205105,0,0,0.73957496,37.67843,24.479675)">
        <path
           style="display:inline;fill:#ffffff;fill-opacity:1;stroke:none;stroke-width:4;stroke-dasharray:none;stroke-opacity:1"
           d="m 46.368267,163.91763 7.786707,-6.5094 c 0,0 -7.297745,-8.79178 -9.273653,-17.8245 -1.975906,-9.03272 -2.117043,-19.75907 4.375224,-30.06201 6.492266,-10.30295 13.83135,-14.537037 13.83135,-14.537037 0,0 6.329216,-18.125745 13.125669,-27.662701 4.375224,-6.139425 9.032718,-9.7384 11.784875,-10.020672 2.390921,-0.245221 5.080906,0.423408 10.091243,5.786585 4.972908,5.323115 8.750438,14.678169 12.702258,24.134295 0,0 8.46818,4.375225 12.13772,6.915677 3.66954,2.540452 9.03272,5.080905 15.94839,15.383853 0,0 19.355,0.24168 27.09816,3.81068 3.44528,1.58801 7.23626,3.87381 5.99829,10.65578 -1.62306,8.89159 -12.63169,19.82964 -18.41828,25.19282 0,0 -0.33337,8.23157 -5.4033,16.28325 -8.20388,13.02881 -18.36605,18.76109 -32.07217,22.36801 -9.11109,2.39769 -15.5646,2.05444 -24.342199,-2.23811 C 84.078667,181.8482 63.749302,169.39479 56.69249,160.10401 l -2.57176,-2.9054 z"
           id="path25" />
        <path
           style="display:inline;fill:#ffffff;fill-opacity:1;stroke:none;stroke-width:3;stroke-linecap:round;stroke-linejoin:round;stroke-dasharray:none;stroke-opacity:1;paint-order:normal"
           d="m 41.832831,161.76266 c 0.814925,-0.54328 9.507461,-7.1985 9.507461,-7.1985 0,0 12.495519,11.54477 26.756711,20.64477 14.261193,9.1 21.867162,12.90298 27.571637,14.53284 5.70448,1.62984 -8.013431,13.7179 -8.013431,13.7179 L 45.228351,169.23281 Z"
           id="path35"
           transform="matrix(0.95030848,0,0,0.9534901,5.9721571,10.079688)" />
        <path
           style="display:inline;fill:#fea4c4;fill-opacity:1;stroke:none;stroke-width:2;stroke-linecap:round;stroke-linejoin:miter;stroke-dasharray:none;stroke-opacity:1"
           d="m 111.14478,87.292758 c 0,0 -4.51636,3.175567 -5.71601,7.903631 -1.19966,4.728062 -1.27023,6.915671 -0.28228,8.679871 0.98796,1.76421 3.52841,-0.28227 4.37523,-1.9759 0.84681,-1.69364 6.28056,-9.244423 7.48022,-9.03272 1.19965,0.211704 5.18926,2.115574 5.18926,2.115574 0,0 -2.2254,1.059992 -6.45949,7.128846 -4.23409,6.06886 -4.51636,9.17386 -3.74011,10.72636 0.77625,1.55249 3.03443,4.02238 7.55079,0.2117 4.51636,-3.81068 9.99648,-8.92978 10.64368,-10.95163 0.77625,-2.425002 3.29604,2.66447 3.29604,2.66447 0,0 -2.43712,4.54705 -4.34246,6.52296 -1.31893,1.36778 -4.72806,4.72806 -4.8692,5.50431 -0.14114,0.77625 1.92894,3.09514 5.08091,1.83477 5.37112,-2.14774 7.48377,-5.46799 8.81245,-7.75185 1.08335,-1.86215 -3.09644,-7.06745 -3.09644,-7.06745 L 116.43739,89.692074 Z"
           id="path22" />
        <path
           style="display:inline;fill:#fd97b6;fill-opacity:1;stroke:none;stroke-width:4;stroke-linecap:round;stroke-linejoin:miter;stroke-dasharray:none;stroke-opacity:1"
           d="m 72.95262,90.567035 c 0,0 3.994264,-10.746277 9.83014,-18.811995 3.34289,-4.62018 4.391453,-6.212397 7.534778,-5.289316 1.009977,0.296594 5.089719,5.289315 7.634579,11.227319 2.544853,5.938004 3.443043,8.782259 3.443043,8.782259 0,0 -8.632559,-0.798388 -14.171371,0.0998 -5.538811,0.898186 -11.426914,2.395162 -14.271169,3.991935 z"
           id="path23" />
        <path
           style="display:inline;fill:#fd97b6;fill-opacity:1;stroke:none;stroke-width:4;stroke-linecap:round;stroke-linejoin:miter;stroke-dasharray:none;stroke-opacity:1"
           d="m 142.19475,117.84875 c 0,0 11.50261,-0.14113 16.72464,1.3408 5.22205,1.48193 4.79864,1.9759 5.29262,2.68159 0.49397,0.70568 -0.14114,3.81067 -3.88125,9.03271 -3.74011,5.22205 -11.78488,11.43204 -11.78488,11.43204 0,0 -0.70568,-9.45613 -2.68158,-14.96044 -1.97591,-5.50431 -2.54046,-7.83306 -3.66955,-9.5267 z"
           id="path24" />
        <path
           style="display:inline;fill:none;fill-opacity:1;stroke:#52267f;stroke-width:4;stroke-dasharray:none;stroke-opacity:1"
           d="m 46.368267,163.91763 7.786707,-6.5094 c 0,0 -7.297745,-8.79178 -9.273653,-17.8245 -1.975906,-9.03272 -2.117043,-19.75907 4.375224,-30.06201 6.492266,-10.30295 13.83135,-14.537037 13.83135,-14.537037 0,0 6.329216,-18.125745 13.125669,-27.662701 4.375224,-6.139425 9.032718,-9.7384 11.784875,-10.020672 2.390921,-0.245221 5.080906,0.423408 10.091243,5.786585 4.972908,5.323115 8.750438,14.678169 12.702258,24.134295 0,0 8.46818,4.375225 12.13772,6.915677 3.66954,2.540452 9.03272,5.080905 15.94839,15.383853 0,0 19.355,0.24168 27.09816,3.81068 3.44528,1.58801 7.23626,3.87381 5.99829,10.65578 -1.62306,8.89159 -12.63169,19.82964 -18.41828,25.19282 0,0 -0.33337,8.23157 -5.4033,16.28325 -8.20388,13.02881 -18.36605,18.76109 -32.07217,22.36801 -9.11109,2.39769 -15.5646,2.05444 -24.342199,-2.23811 C 84.078667,181.8482 63.749302,169.39479 56.69249,160.10401 l -2.57176,-2.9054 z"
           id="path5" />
      </g>
      <g
         id="g7"
         style="display:inline"
         transform="matrix(0.74205105,0,0,0.73957496,37.67843,24.479675)">
        <path
           style="fill:none;fill-opacity:1;stroke:#52267f;stroke-width:3;stroke-linecap:round;stroke-linejoin:miter;stroke-dasharray:none;stroke-opacity:1"
           d="M 50.797379,123.8498 C 44.110885,120.45665 38.522175,118.26108 33.33266,117.16331"
           id="path6" />
        <path
           style="fill:none;fill-opacity:1;stroke:#52267f;stroke-width:3;stroke-linecap:round;stroke-linejoin:miter;stroke-dasharray:none;stroke-opacity:1"
           d="M 52.646978,117.78693 C 48.247237,113.39646 42.107817,109.04718 38.169554,106.95904"
           id="path7" />
        <path
           style="fill:none;fill-opacity:1;stroke:#52267f;stroke-width:3;stroke-linecap:round;stroke-linejoin:miter;stroke-dasharray:none;stroke-opacity:1"
           d="m 126.17629,174.77722 c 2.01248,2.5398 3.76493,4.92323 5.27649,7.20393 1.98606,2.99662 3.55623,5.81589 4.75389,8.57951"
           id="path8" />
        <path
           style="fill:none;fill-opacity:1;stroke:#52267f;stroke-width:3;stroke-linecap:round;stroke-linejoin:miter;stroke-dasharray:none;stroke-opacity:1"
           d="m 131.74941,171.75735 c 5.17868,3.43733 10.66342,8.5877 13.49398,12.03127"
           id="path9" />
      </g>
      <g
         id="g26"
         style="display:inline"
         transform="matrix(0.7051774,0,0,0.7051774,42.110076,31.93436)">
        <path
           style="display:inline;fill:#8fe2e5;fill-opacity:1;stroke:#ffffff;stroke-width:3;stroke-dasharray:none;stroke-opacity:1"
           d="m 17.642029,144.38236 71.979478,45.30473 c 0,0 -7.339084,0.14114 -20.888163,15.38385 0,0 -17.544663,-3.49141 -35.848602,-26.53361 C 25.29962,168.98868 19.900209,157.7903 17.642029,144.38236 Z"
           id="path3" />
        <path
           style="display:inline;fill:#cca2f5;fill-opacity:1;stroke:none;stroke-width:3;stroke-dasharray:none;stroke-opacity:1"
           d="m 70.058466,205.68447 c 0,0 15.075698,-18.25887 42.514104,-23.95161 22.42168,-4.65191 50.1986,-7.28528 55.38811,-6.1875 0,0 -2.92623,5.28751 -9.97984,12.2752 -10.67842,10.57863 -25.95409,18.77086 -40.91733,21.45666 -18.948189,3.40107 -31.735889,0.39919 -39.12097,-1.49698 -7.38508,-1.89617 -7.884074,-2.09577 -7.884074,-2.09577 z"
           id="path4" />
        <circle
           style="display:inline;fill:none;fill-opacity:1;stroke:#51267f;stroke-width:4;stroke-dasharray:none;stroke-opacity:1"
           id="path1"
           cx="99.798386"
           cy="126.94356"
           r="84.229836" />
      </g>
      <g
         id="g22"
         style="display:inline"
         transform="matrix(0.74205105,0,0,0.73957496,37.67843,24.479675)">
        <path
           style="display:inline;fill:#905ed9;fill-opacity:1;stroke:none;stroke-width:3;stroke-linecap:round;stroke-linejoin:miter;stroke-dasharray:none;stroke-opacity:1"
           d="m 63.172378,127.99143 c 0,0 0.590719,7.51694 5.838206,9.13155 2.594759,0.79839 5.835758,1.08603 9.031753,-0.54889 2.542377,-1.30055 3.492945,-6.1376 3.492945,-6.1376 0,0 -2.445062,1.29738 -7.584678,1.59677 -5.139616,0.2994 -6.1376,-0.39919 -7.983871,-1.44707 -1.84627,-1.04788 -2.794355,-2.59476 -2.794355,-2.59476 z"
           id="path15" />
        <path
           style="display:inline;fill:#50247d;fill-opacity:1;stroke:none;stroke-width:3;stroke-linecap:round;stroke-linejoin:miter;stroke-dasharray:none;stroke-opacity:1"
           d="m 62.17051,119.33068 c 0,0 3.740111,-6.13942 11.432035,-5.57488 7.691924,0.56455 9.456126,5.64545 10.09124,8.11534 0.635114,2.46988 0.705681,8.3976 -1.552498,10.93805 -2.25818,2.54046 -3.316701,3.38727 -3.316701,3.38727 l 0.282271,-4.16352 c 0,0 -3.77316,2.09036 -8.538742,1.62307 -3.65621,-0.35851 -5.973131,-1.37721 -7.197947,-4.58693 -1.103562,-2.89196 2.399316,-8.04476 2.399316,-8.04476 0,0 -3.246133,-0.49398 -3.598974,-1.69364 z"
           id="path13" />
        <ellipse
           style="display:inline;fill:#ffffff;fill-opacity:1;stroke:none;stroke-width:3;stroke-linecap:round;stroke-linejoin:miter;stroke-dasharray:none;stroke-opacity:1"
           id="path14"
           ry="3.9919353"
           rx="4.2581921"
           cy="116.96803"
           cx="-86.058655"
           transform="rotate(-67.969158)" />
        <path
           style="display:inline;fill:#905ed9;fill-opacity:1;stroke:none;stroke-width:3;stroke-linecap:round;stroke-linejoin:miter;stroke-dasharray:none;stroke-opacity:1"
           d="m 101.84425,152.59173 c 0,0 -0.29939,-1.14768 1.09778,-1.74647 1.39718,-0.59879 5.68851,-2.19556 10.57863,-0.54889 4.89012,1.64667 8.65751,6.3871 8.70741,10.27923 0,0 0.38541,1.27636 1.69657,1.09779 0.92833,-0.12643 0.32435,1.39718 -0.87323,0.92313 -1.22424,-0.4846 -1.02293,0.94808 -1.02293,0.94808 0,0 1.77142,1.09779 0.24945,1.67163 -1.88997,0.71259 -3.28236,-0.69267 -3.66758,-1.62172 -0.42415,-1.02294 -0.51465,-3.70625 -1.62173,-5.26437 -1.34727,-1.89617 -2.62306,-3.26571 -5.43901,-4.54083 -3.05161,-1.38182 -7.90902,-0.34929 -7.90902,-0.34929 0,0 -1.67164,0.27444 -1.79638,-0.84829 z"
           id="path16" />
      </g>
      <g
         id="g21"
         style="display:inline"
         transform="matrix(0.74205105,0,0,0.73957496,37.67843,24.479675)">
        <path
           style="display:inline;fill:#d66c9f;fill-opacity:1;stroke:none;stroke-width:2;stroke-linecap:round;stroke-linejoin:miter;stroke-dasharray:none;stroke-opacity:1"
           d="m 77.73078,155.39099 c 0,0 0.211704,-6.88039 2.505168,-7.5155 2.293464,-0.63512 3.704825,0.24698 3.704825,0.24698 l 3.281418,-0.63511 0.423408,4.09295 1.905338,2.64631 -2.081757,2.57573 -3.528407,2.39932 -3.281418,-0.10585 -2.505167,-1.3408 z"
           id="path20" />
        <path
           style="display:inline;fill:#fc95b4;fill-opacity:1;stroke:none;stroke-width:2;stroke-linecap:round;stroke-linejoin:miter;stroke-dasharray:none;stroke-opacity:1"
           d="m 77.660211,155.144 c 0,0 -0.275949,-3.3917 1.517216,-3.91653 1.446644,-0.42341 3.351984,-0.17642 5.186755,1.12909 1.936463,1.37787 2.293464,2.71688 2.011192,4.97505 -0.363247,2.90597 -6.950959,1.3408 -6.950959,1.3408 0,0 -2.258181,-1.79949 -1.764204,-3.52841 z"
           id="path21" />
        <path
           style="fill:none;fill-opacity:1;stroke:#51267f;stroke-width:2;stroke-linecap:round;stroke-linejoin:miter;stroke-dasharray:none;stroke-opacity:1"
           d="m 79.539313,142.56199 c 0,0 -0.349295,3.64265 1.696572,4.64063 2.045869,0.99798 5.339215,0.89818 6.985889,-0.74849 0,0 -1.377236,3.91122 -0.0998,5.68852 1.147681,1.59677 1.696572,2.14566 5.838206,1.79636"
           id="path17" />
        <path
           style="fill:none;fill-opacity:1;stroke:#51267f;stroke-width:2;stroke-linecap:round;stroke-linejoin:miter;stroke-dasharray:none;stroke-opacity:1"
           d="m 90.31754,153.93901 c 0,0 -2.894154,4.39113 -5.688509,5.28931 -2.794354,0.89819 -6.01119,1.0842 -7.285281,-2.84425 -1.197581,-3.69254 3.09375,-9.68044 3.09375,-9.68044"
           id="path18" />
        <path
           style="display:inline;fill:#fc95b4;fill-opacity:1;stroke:none;stroke-width:2;stroke-linecap:round;stroke-linejoin:miter;stroke-dasharray:none;stroke-opacity:1"
           d="m 88.033723,146.64054 c -0.952669,-0.84681 -1.270224,-2.36403 -1.093805,-3.74011 0.176421,-1.37607 0.882102,-1.58778 2.152327,-0.95267 1.270228,0.63512 3.493122,2.2229 3.775395,3.28142 0.282274,1.05852 -0.58328,1.43791 -1.358436,1.67599 -0.7129,0.21896 -2.452242,0.63512 -3.475481,-0.26463 z"
           id="path19" />
      </g>
      <g
         id="g33"
         transform="matrix(0.74205105,0,0,0.73957496,37.67843,24.479675)">
        <path
           style="display:inline;fill:#51267e;fill-opacity:1;stroke:#51267e;stroke-width:3;stroke-linecap:round;stroke-linejoin:round;stroke-dasharray:none;stroke-opacity:1;paint-order:normal"
           d="m 113.95371,197.82311 25.12687,-28.79403 6.24776,1.42612 0.13582,4.27836 -25.19478,28.99776 c 0,0 -2.10522,1.01865 -4.00671,-0.47538 -1.90149,-1.49403 -3.66716,-2.51269 -2.30896,-5.43283 z"
           id="path30" />
        <path
           style="display:inline;fill:none;fill-opacity:1;stroke:#cba2f4;stroke-width:3;stroke-linecap:round;stroke-linejoin:round;stroke-dasharray:none;stroke-opacity:1;paint-order:normal"
           d="m 117.60081,198.17826 23.28967,-27.17929"
           id="path31" />
        <path
           style="display:inline;fill:#fdca72;fill-opacity:1;stroke:#51267e;stroke-width:3;stroke-linecap:round;stroke-linejoin:round;stroke-dasharray:none;stroke-opacity:1;paint-order:normal"
           d="m 138.82562,168.83808 c 0,0 -2.35297,-0.9604 -2.44902,-2.83318 -0.096,-1.87277 1.05644,-2.78515 1.05644,-2.78515 l 5.09012,-4.65794 -0.7203,-9.1718 c 0,0 -0.2401,-3.16932 3.31337,-2.78516 l 7.15497,3.64952 7.58715,-1.72872 c 0,0 3.40942,-1.24852 4.27378,0.7203 0.86436,1.96882 -0.048,5.52229 -0.048,5.52229 l -1.4406,5.42625 4.17773,5.76239 c 0,0 2.83318,3.3614 0.33614,4.51388 -2.49703,1.15248 -9.79606,1.05644 -9.79606,1.05644 l -4.85002,7.44309 c 0,0 -1.77673,2.92921 -4.32179,-0.19208 -2.54506,-3.1213 -2.68912,-7.87527 -2.68912,-7.87527 z"
           id="path29" />
        <path
           style="fill:#fdffff;fill-opacity:1;stroke:none;stroke-width:3;stroke-linecap:round;stroke-linejoin:round;stroke-dasharray:none;stroke-opacity:1;paint-order:normal"
           d="m 144.68405,164.61233 4.0817,-4.0817 -0.86436,-5.85843 4.75397,2.44902 5.42625,-2.44902 -1.4406,6.57873 3.21734,4.80199 -5.61833,0.62426 -2.68912,3.45744 -1.68069,-4.17774 z"
           id="path28" />
        <path
           style="fill:#fdca72;fill-opacity:1;stroke:none;stroke-width:3;stroke-linecap:round;stroke-linejoin:round;stroke-dasharray:none;stroke-opacity:1;paint-order:normal"
           d="m 115.92312,197.48355 c -0.16978,0.13582 -1.66381,1.35821 -1.39217,2.30896 0.27165,0.95074 3.25919,3.39813 3.59925,3.46343 0.60367,0.11592 0.80294,0.022 1.86755,-0.9847 1.06432,-1.00641 0.61119,-1.32425 -0.13587,-1.93545 -0.74701,-0.61119 -2.07843,-1.80819 -2.54082,-2.18103 -0.49768,-0.40128 -0.77855,-0.86704 -1.25392,-0.73123 z"
           id="path32" />
      </g>
      <path
         style="fill:#9b71f0;fill-opacity:1;stroke:none;stroke-width:3;stroke-linecap:round;stroke-linejoin:round;stroke-dasharray:none;stroke-opacity:1;paint-order:normal"
         id="path33"
         d="m 177.48167,165.47668 c 0.70337,0 2.08324,6.04583 2.5806,6.54319 0.49736,0.49735 6.54319,1.87722 6.54319,2.58059 0,0.70337 -6.04583,2.08324 -6.54319,2.5806 -0.49736,0.49736 -1.87723,6.54319 -2.5806,6.54319 -0.70337,0 -2.08324,-6.04583 -2.58059,-6.54319 -0.49736,-0.49736 -6.54319,-1.87723 -6.54319,-2.5806 0,-0.70337 6.04583,-2.08324 6.54319,-2.58059 0.49735,-0.49736 1.87723,-6.54319 2.58059,-6.54319 z"
         transform="matrix(0.74205105,0,0,0.73957496,37.67843,24.479675)" />
      <path
         style="fill:#fc80b0;fill-opacity:1;stroke:none;stroke-width:3;stroke-linecap:round;stroke-linejoin:round;stroke-dasharray:none;stroke-opacity:1;paint-order:normal"
         id="path34"
         d="m 177.48167,165.47668 c 0.70337,0 2.08324,6.04583 2.5806,6.54319 0.49736,0.49735 6.54319,1.87722 6.54319,2.58059 0,0.70337 -6.04583,2.08324 -6.54319,2.5806 -0.49736,0.49736 -1.87723,6.54319 -2.5806,6.54319 -0.70337,0 -2.08324,-6.04583 -2.58059,-6.54319 -0.49736,-0.49736 -6.54319,-1.87723 -6.54319,-2.5806 0,-0.70337 6.04583,-2.08324 6.54319,-2.58059 0.49735,-0.49736 1.87723,-6.54319 2.58059,-6.54319 z"
         transform="matrix(0.79014605,0.1055425,-0.10589586,0.78750945,55.7563,-21.657255)" />
    </g>
  </g>
</svg>
